<?xml version="1.0" encoding="utf-8"?>
<svg viewBox="0 0 309 184" xmlns="http://www.w3.org/2000/svg">
  <g transform="matrix(0.1, 0, 0, -0.1, 0, 184)" fill="#fff" stroke="none">
    <path d="M1972 1828 c-7 -7 -12 -41 -12 -85 l0 -72 -72 -3 c-67 -3 -73 -5 -76 -25 -3 -22 0 -23 72 -23 l76 0 0 -160 0 -160 -389 0 c-223 0 -392 4 -395 9 -4 5 3 38 14 72 12 39 16 67 10 73 -10 10 -19 -9 -41 -85 -18 -64 -24 -69 -90 -69 -51 0 -59 -2 -59 -19 0 -11 5 -21 11 -23 7 -2 -5 -58 -33 -158 -38 -133 -48 -155 -66 -158 -29 -4 -408 51 -671 97 -119 21 -221 36 -228 34 -18 -7 -16 -56 7 -169 109 -530 279 -814 489 -814 49 0 143 47 220 109 104 85 193 120 221 86 19 -23 -6 -44 -102 -84 -42 -18 -86 -42 -97 -52 -27 -25 -28 -80 -3 -102 29 -26 65 -20 157 24 47 23 91 39 100 35 9 -3 15 -18 15 -39 0 -18 5 -38 12 -45 16 -16 83 -15 116 2 27 14 106 95 196 200 26 31 58 64 71 72 21 14 25 13 49 -10 14 -15 33 -26 42 -26 26 0 82 38 178 123 48 43 114 95 146 117 123 83 280 106 280 40 0 -24 -42 -48 -161 -94 -53 -20 -109 -48 -123 -61 -43 -40 -32 -104 23 -123 44 -15 107 5 288 92 224 107 379 148 427 113 15 -11 16 -17 7 -35 -16 -29 -14 -67 5 -83 10 -8 62 -15 142 -20 70 -4 141 -12 159 -19 28 -10 31 -15 27 -40 -7 -32 17 -59 81 -90 50 -24 81 -26 89 -4 8 22 -9 41 -45 49 -35 8 -45 21 -29 40 19 22 2 54 -40 75 -45 23 -150 50 -196 50 -31 0 -32 0 -38 63 -3 34 -8 126 -12 204 -4 86 -11 146 -18 152 -6 4 -156 11 -334 13 -177 3 -326 8 -329 12 -3 3 5 15 18 27 13 11 174 150 357 307 194 168 332 294 332 304 0 22 -16 31 -34 21 -8 -4 -88 -72 -178 -149 -453 -393 -513 -444 -520 -444 -9 0 -11 643 -2 688 6 31 7 31 78 34 63 3 71 5 71 23 0 18 -8 20 -77 23 l-77 3 -3 81 c-3 80 -12 100 -36 76z m-12 -784 l0 -207 -117 7 c-195 11 -667 57 -758 74 -30 5 -11 8 80 12 l120 5 0 140 0 140 -102 3 c-83 2 -103 6 -103 17 0 13 60 15 440 15 l440 0 0 -206z m-720 31 l0 -95 -116 0 c-105 0 -115 2 -111 18 3 9 15 52 28 95 l22 77 88 0 89 0 0 -95z m-948 -109 c742 -126 1424 -195 2090 -212 l268 -7 4 -31 c11 -72 17 -256 8 -256 -5 0 -17 12 -27 26 -20 30 -71 54 -118 54 -43 0 -182 -35 -252 -64 -34 -13 -68 -20 -90 -18 l-35 4 20 25 c47 60 9 136 -73 148 -96 15 -224 -34 -342 -130 l-70 -56 -235 5 c-129 3 -253 5 -275 3 -22 -1 -242 -2 -489 -2 l-448 0 -30 80 c-46 124 -130 465 -115 465 3 0 97 -16 209 -34z m935 -551 c13 -35 -72 -84 -123 -71 -35 9 -31 42 9 66 39 24 105 27 114 5z"/>
    <path d="M1384 1207 c-2 -7 -3 -71 -2 -143 l3 -129 120 0 120 0 0 140 0 140 -118 3 c-91 2 -119 0 -123 -11z m186 -132 l0 -95 -70 0 -70 0 0 95 0 95 70 0 70 0 0 -95z"/>
    <path d="M1677 1214 c-4 -4 -7 -70 -7 -146 l0 -138 120 0 121 0 -3 143 -3 142 -111 3 c-60 1 -113 -1 -117 -4z m183 -139 l0 -95 -70 0 -70 0 0 95 0 95 70 0 70 0 0 -95z"/>
    <path d="M175 905 c-51 -50 -15 -135 58 -135 73 0 106 82 54 138 -28 31 -80 30 -112 -3z m76 -25 c34 -19 18 -70 -23 -70 -15 0 -38 27 -38 44 0 6 30 36 36 36 3 0 14 -5 25 -10z"/>
    <path d="M2776 524 c-26 -26 -19 -52 22 -73 50 -26 111 43 66 76 -24 18 -69 16 -88 -3z m58 -20 c24 -9 19 -24 -8 -24 -28 0 -43 16 -24 23 7 3 14 6 15 6 1 1 8 -2 17 -5z"/>
    <path d="M2446 339 c-33 -26 -33 -54 -1 -75 55 -36 138 39 93 84 -18 18 -62 14 -92 -9z m67 -15 c3 -3 3 -12 0 -20 -7 -18 -53 -18 -53 0 0 20 38 34 53 20z"/>
    <path d="M1660 280 c-22 -22 -26 -60 -8 -78 19 -19 73 -14 102 9 30 23 36 73 10 83 -33 13 -84 6 -104 -14z m90 -19 c0 -5 -7 -17 -16 -25 -30 -30 -80 -12 -54 19 14 16 70 21 70 6z"/>
    <line style="stroke: #fff; stroke-width: 10px;" x1="1985.5327723927323" y1="1639.2192364494263" x2="34.47895271590403" y2="1049.6123684148924"/>
    <line style="stroke: #fff; stroke-width: 10px;" x1="1989.9883232580257" y1="1631.078613903513" x2="2680.7431377191933" y2="786.7216168725965"/>
    <path d="M 2843.318 1134.891"/>
    <path d="M 3186.967 1486.371"/>
    <path style="stroke-width: 10px; paint-order: fill; stroke: #fff; fill: none;" d="M 2033.019 837.253 A 708.652 708.652 0 0 1 2737.726 1471.232"/>
    <path style="stroke-width: 10px; paint-order: fill; stroke: #fff; fill: none;" d="M 2228.742 808.061 C 2428.495 808.061 2596.047 1050.394 2617.096 1369.741"/>
  </g>
</svg>